<?xml version="1.0" encoding="UTF-8" standalone="no"?>
<svg
   xmlns:dc="http://purl.org/dc/elements/1.1/"
   xmlns:cc="http://creativecommons.org/ns#"
   xmlns:rdf="http://www.w3.org/1999/02/22-rdf-syntax-ns#"
   xmlns:svg="http://www.w3.org/2000/svg"
   xmlns="http://www.w3.org/2000/svg"
   xmlns:sodipodi="http://sodipodi.sourceforge.net/DTD/sodipodi-0.dtd"
   xmlns:inkscape="http://www.inkscape.org/namespaces/inkscape"
   version="1.1"
   id="svg10"
   width="464.91962"
   height="79.735519"
   viewBox="0 0 464.91962 79.735519"
   sodipodi:docname="mal.svg"
   inkscape:version="1.0.2-2 (e86c870879, 2021-01-15)">
  <metadata
     id="metadata16">
    <rdf:RDF>
      <cc:Work
         rdf:about="">
        <dc:format>image/svg+xml</dc:format>
        <dc:type
           rdf:resource="http://purl.org/dc/dcmitype/StillImage" />
        <dc:title></dc:title>
      </cc:Work>
    </rdf:RDF>
  </metadata>
  <defs
     id="defs14" />
  <sodipodi:namedview
     pagecolor="#ffffff"
     bordercolor="#666666"
     borderopacity="1"
     objecttolerance="10"
     gridtolerance="10"
     guidetolerance="10"
     inkscape:pageopacity="0"
     inkscape:pageshadow="2"
     inkscape:window-width="1920"
     inkscape:window-height="1027"
     id="namedview12"
     showgrid="false"
     inkscape:zoom="1.2380165"
     inkscape:cx="150.71498"
     inkscape:cy="-4.9609219"
     inkscape:window-x="-8"
     inkscape:window-y="-8"
     inkscape:window-maximized="1"
     inkscape:current-layer="g18" />
  <g
     inkscape:groupmode="layer"
     inkscape:label="Image"
     id="g18"
     transform="translate(-72.902889,-62.023498)">
    <path
       style="fill:#000000;fill-opacity:1;stroke:#000000;stroke-width:1px;stroke-linecap:butt;stroke-linejoin:miter;stroke-opacity:1"
       d="m 228.38953,62.701105 c -15.57421,-0.370348 -31.39628,-1.562524 -42.00267,14.539387 -7.95302,11.888434 -6.79705,27.908178 -5.85614,34.430078 1.10784,6.27481 3.53061,16.07891 8.58227,22.11198 l 12.3181,-8.68324 c -4.00755,-6.61509 -6.32393,-13.71338 -6.56292,-21.40521 l 17.9723,0.10097 0.20193,20.69843 16.96262,0.40387 -0.20194,-46.849135 -16.86165,0.100968 0.10097,13.125835 -15.4481,0.100968 c 3.74717,-11.722404 8.65633,-14.148896 13.73165,-15.246162 l 20.39552,-0.100968 z"
       id="path36"
       sodipodi:nodetypes="cccccccccccccccc" />
    <path
       style="fill:#000000;fill-opacity:1;stroke:#000000;stroke-width:1px;stroke-linecap:butt;stroke-linejoin:miter;stroke-opacity:1"
       d="m 149.73549,78.048235 -16.96262,0.201936 17.66939,42.507509 -8.07743,20.29456 15.14519,0.20194 21.00134,-63.407881 -15.4481,0.201936 -6.46195,21.80908 z"
       id="path941" />
    <path
       style="fill:#000000;fill-opacity:1;stroke:#000000;stroke-width:1px;stroke-linecap:butt;stroke-linejoin:miter;stroke-opacity:1"
       d="m 73.403709,63.104977 0.100968,61.994333 14.943258,-0.20194 -0.100968,-37.257178 12.923903,16.558748 13.42874,-17.164556 0.3029,37.560086 14.03455,-0.20194 0.40387,-61.691425 -14.94326,0.100968 -13.2268,18.881009 -12.419063,-18.477137 z"
       id="path943" />
    <path
       style="fill:#000000;fill-opacity:1;stroke:#000000;stroke-width:1px;stroke-linecap:butt;stroke-linejoin:miter;stroke-opacity:1"
       d="m 237.88052,124.19059 0.20194,-46.445259 h 28.6749 c 4.90904,0.838685 8.67811,3.518866 10.09679,9.995829 v 36.75234 l -14.94325,-0.50484 0.10096,-31.502006 c -0.21877,-1.985734 -1.19383,-3.060767 -3.02904,-3.432911 h -6.46195 v 35.035887 z"
       id="path945"
       sodipodi:nodetypes="ccccccccccc" />
    <path
       id="rect947"
       style="fill:#000000;fill-opacity:1;stroke:#000000;stroke-opacity:1"
       d="m 284.15262,77.963486 h 15.42135 V 124.6559 h -15.42135 z" />
    <path
       id="rect949"
       style="fill:#000000;fill-opacity:1;stroke:#000000;stroke-opacity:1"
       d="m 283.72424,62.827717 h 15.99251 V 74.96489 h -15.99251 z" />
    <path
       id="rect947-2"
       style="fill:#000000;fill-opacity:1;stroke:#000000;stroke-opacity:1"
       d="m 457.35721,78.177673 h 15.42135 v 46.692417 h -15.42135 z" />
    <path
       id="rect949-1"
       style="fill:#000000;fill-opacity:1;stroke:#000000;stroke-opacity:1"
       d="m 456.92883,63.041901 h 15.99251 v 12.137172 h -15.99251 z" />
    <path
       style="fill:#000000;fill-opacity:1;stroke:#000000;stroke-width:1px;stroke-linecap:butt;stroke-linejoin:miter;stroke-opacity:1"
       d="m 306.14232,124.94148 0.35698,-47.120787 50.47636,0.214185 c 7.68495,0.08341 9.66526,4.017442 9.78113,9.209972 l 0.0714,37.62523 -15.42134,1e-5 -0.0714,-31.699444 c 0.28871,-4.185878 -1.36754,-4.092839 -2.9272,-4.212313 h -5.35463 v 35.911747 l -12.06578,0.0714 0.0714,-35.840356 -11.35182,0.14279 0.21418,35.626166 z"
       id="path975"
       sodipodi:nodetypes="ccccccccccccccc" />
    <path
       id="path977"
       style="fill:#000000;fill-opacity:1;stroke:#000000;stroke-width:1px;stroke-linecap:butt;stroke-linejoin:miter;stroke-opacity:1"
       d="m 395.31445,74.75 c -10.67552,0.903372 -23.13252,2.404035 -24.20312,22.347656 0.31419,17.832984 10.0483,29.793294 36.05469,27.843754 l 4.57031,-11.63672 h -16.56445 c 10.58586,-7.35193 16.2094,-15.590109 16.13476,-24.845706 C 411.28094,78.45583 405.60902,74.864639 395.31445,74.75 Z m -2.61523,12.964844 c 0.72005,-0.02612 1.43936,0.07629 2.13476,0.259765 1.23673,0.42888 2.84487,0.469741 3.54102,1.759766 0.72051,1.373143 -0.22983,2.822666 -0.92773,3.990234 -1.85221,2.848735 -4.27091,5.575875 -7.52344,6.806641 -1.24657,0.68383 -3.03966,0.2574 -3.60547,-1.107422 -0.95717,-2.60412 -0.26967,-5.573438 1.13867,-7.892578 1.1614,-1.845537 2.87944,-3.808806 5.24219,-3.816406 z" />
    <path
       style="fill:#000000;fill-opacity:1;stroke:#000000;stroke-width:1px;stroke-linecap:butt;stroke-linejoin:miter;stroke-opacity:1"
       d="m 417.70446,62.903041 h 15.34713 l -0.10097,48.464619 20.7994,0.10097 -3.43291,13.12584 -32.20878,0.20193 z"
       id="path1770" />
    <path
       style="fill:#000000;fill-opacity:1;stroke:#000000;stroke-width:1px;stroke-linecap:butt;stroke-linejoin:miter;stroke-opacity:1"
       d="m 478.0833,112.68025 4.13969,12.01518 14.23648,-0.3029 c 3.67996,-0.24865 9.88962,0.10366 11.40938,-9.08712 0.53832,-2.41413 -0.91704,-5.73448 -3.33194,-9.49098 l -8.98615,-12.318096 c -2.52555,-3.332555 -1.53481,-4.918575 2.12033,-4.745495 h 8.07744 L 502.11368,77.34146 488.07913,77.240492 c -14.76233,3.435127 -12.98372,12.903452 -6.66388,20.496496 l 6.96679,9.793892 c 1.45631,2.44191 3.19963,4.77354 -1.11065,5.3513 z"
       id="path1772"
       sodipodi:nodetypes="cccccccccccccc" />
    <path
       style="fill:#000000;fill-opacity:1;stroke:#000000;stroke-width:1px;stroke-linecap:butt;stroke-linejoin:miter;stroke-opacity:1"
       d="m 515.23951,70.37467 13.22681,-4.139686 0.10097,11.207444 6.86582,-0.100968 -0.10097,11.712283 h -6.76486 l 10e-6,23.323597 8.58227,0.20194 -3.83678,12.41906 -10.0968,-0.30291 c -3.98427,-0.54642 -7.63951,-1.7509 -8.1784,-9.18808 l 0.20193,-26.756511 -5.45227,-0.302904 -0.10096,-10.90454 h 5.55324 z"
       id="path1774"
       sodipodi:nodetypes="cccccccccccccccc" />
  </g>
</svg>
