<?xml version="1.0" encoding="UTF-8" standalone="no"?>
<svg
   xmlns:dc="http://purl.org/dc/elements/1.1/"
   xmlns:cc="http://creativecommons.org/ns#"
   xmlns:rdf="http://www.w3.org/1999/02/22-rdf-syntax-ns#"
   xmlns:svg="http://www.w3.org/2000/svg"
   xmlns="http://www.w3.org/2000/svg"
   xmlns:sodipodi="http://sodipodi.sourceforge.net/DTD/sodipodi-0.dtd"
   xmlns:inkscape="http://www.inkscape.org/namespaces/inkscape"
   version="1.0"
   width="984.73962pt"
   height="220.067pt"
   viewBox="0 0 984.73962 220.067"
   preserveAspectRatio="xMidYMid meet"
   id="svg1689"
   sodipodi:docname="shikimori.svg"
   inkscape:version="1.0.2-2 (e86c870879, 2021-01-15)">
  <metadata
     id="metadata1695">
    <rdf:RDF>
      <cc:Work
         rdf:about="">
        <dc:format>image/svg+xml</dc:format>
        <dc:type
           rdf:resource="http://purl.org/dc/dcmitype/StillImage" />
        <dc:title></dc:title>
      </cc:Work>
    </rdf:RDF>
  </metadata>
  <defs
     id="defs1693" />
  <sodipodi:namedview
     pagecolor="#ffffff"
     bordercolor="#666666"
     borderopacity="1"
     objecttolerance="10"
     gridtolerance="10"
     guidetolerance="10"
     inkscape:pageopacity="0"
     inkscape:pageshadow="2"
     inkscape:window-width="1920"
     inkscape:window-height="1027"
     id="namedview1691"
     showgrid="false"
     inkscape:zoom="0.659375"
     inkscape:cx="674.31951"
     inkscape:cy="166.43692"
     inkscape:window-x="-8"
     inkscape:window-y="-8"
     inkscape:window-maximized="1"
     inkscape:current-layer="g1687" />
  <g
     transform="matrix(0.1,0,0,-0.1,-94.260368,288.32769)"
     fill="#000000"
     stroke="none"
     id="g1687">
    <path
       d="m 2323,2879 c -48,-18 -48,-13 -48,-694 0,-434 5,-700 14,-827 14,-191 12,-212 -24,-293 -19,-44 -35,-99 -35,-120 0,-36 51,-86 124,-120 99,-46 118,-50 145,-28 38,31 50,141 51,448 v 270 l 28,34 c 39,47 122,126 168,158 66,47 111,63 174,63 95,0 92,17 80,-402 -5,-196 -5,-369 -1,-385 34,-119 100,-161 298,-189 l 42,-7 -5,54 c -3,30 -10,81 -16,114 -6,33 -13,266 -15,518 l -5,459 -32,36 c -60,68 -138,86 -246,57 -30,-8 -69,-15 -86,-15 -17,0 -46,-10 -65,-23 -34,-23 -123,-125 -140,-162 -6,-11 -15,-29 -22,-40 -7,-11 -33,-57 -59,-102 -51,-87 -79,-108 -104,-76 -11,13 -13,34 -10,75 3,32 8,160 11,285 6,236 10,259 63,423 34,106 62,225 62,264 0,60 -64,130 -160,173 -115,52 -156,64 -187,52 z"
       id="path1659" />
    <path
       d="m 4156,2692 c -4,-7 -2,-38 3,-69 6,-32 15,-85 21,-118 21,-120 40,-477 40,-778 0,-331 -1,-336 -54,-386 -14,-13 -29,-40 -32,-60 -6,-32 -4,-38 32,-69 l 39,-33 v -82 c 0,-45 -2,-140 -5,-212 l -5,-130 25,-3 c 50,-6 142,82 156,148 25,119 55,190 93,216 19,14 25,12 83,-28 35,-24 65,-45 68,-48 6,-7 122,-76 200,-119 99,-56 340,-171 357,-171 21,0 88,87 112,146 13,33 30,66 37,75 30,35 8,57 -37,39 -32,-13 -67,-7 -151,25 -21,8 -57,22 -80,31 -49,19 -104,42 -133,57 -120,61 -175,100 -175,126 0,24 15,39 211,203 152,127 245,214 299,276 116,134 120,146 65,210 -35,40 -146,102 -183,102 -9,-1 -35,-12 -57,-25 -22,-14 -47,-28 -55,-32 -8,-3 -50,-34 -93,-67 -44,-34 -90,-68 -103,-76 -33,-21 -31,-41 4,-38 33,2 52,-8 52,-27 0,-31 -128,-141 -246,-211 -154,-93 -161,-95 -178,-52 -10,24 -11,50 -6,93 5,33 9,218 9,411 1,323 -1,356 -19,428 -32,122 -80,200 -141,231 -38,20 -144,31 -153,17 z"
       id="path1661" />
    <path
       d="m 3745,2557 c -82,-83 -131,-163 -141,-231 -4,-24 1,-37 21,-59 49,-52 100,-79 141,-75 37,3 41,6 78,78 58,114 112,202 142,233 24,26 25,31 13,55 -20,36 -96,82 -138,82 -30,0 -45,-11 -116,-83 z"
       id="path1663" />
    <path
       d="m 5757,2558 c -83,-84 -133,-165 -143,-231 -4,-25 1,-38 21,-60 49,-52 100,-79 141,-75 39,3 39,4 101,121 56,106 111,191 137,209 16,11 -15,58 -58,90 -27,19 -51,28 -78,28 -36,0 -46,-7 -121,-82 z"
       id="path1665" />
    <path
       d="m 10525,2557 c -83,-84 -145,-187 -145,-240 0,-52 104,-130 166,-125 37,3 41,6 77,78 56,109 112,201 141,232 14,15 26,30 26,34 0,18 -47,67 -80,84 -72,37 -93,30 -185,-63 z"
       id="path1667" />
    <path
       d="m 9375,2043 c 7,-37 12,-69 34,-188 34,-195 41,-274 41,-489 0,-219 -1,-225 -25,-274 -57,-114 -12,-218 127,-288 39,-20 61,-24 106,-22 l 57,3 3,418 2,418 25,38 c 34,55 76,82 139,88 120,12 166,-22 166,-124 0,-29 4,-53 9,-53 5,0 19,33 31,73 12,39 33,104 47,142 33,90 42,208 18,235 -25,27 -135,54 -192,46 -52,-7 -93,-29 -93,-50 0,-8 -6,-27 -14,-43 -8,-15 -22,-48 -32,-73 -30,-78 -55,-128 -70,-141 -20,-17 -60,2 -67,33 -3,13 -12,58 -21,101 -26,129 -58,156 -202,176 -103,15 -98,16 -89,-26 z"
       id="path1669" />
    <path
       d="m 6187,2063 c -4,-3 -7,-162 -7,-352 0,-190 -5,-427 -11,-526 -10,-170 -9,-183 9,-225 24,-57 64,-105 104,-125 36,-17 38,-16 62,45 26,64 32,79 55,132 12,26 21,49 21,53 0,6 94,197 114,230 70,120 181,255 210,255 9,0 28,-11 41,-25 22,-21 25,-33 25,-97 0,-40 -5,-117 -10,-170 -15,-153 20,-307 74,-328 47,-17 82,2 147,80 72,86 127,147 185,204 22,23 59,66 83,96 24,30 63,68 88,84 38,25 47,27 70,17 l 26,-12 -9,-117 c -4,-64 -7,-137 -7,-162 11,-376 8,-348 40,-387 53,-66 106,-67 200,-4 89,59 139,122 116,145 -27,26 -36,116 -43,421 -4,200 -11,334 -19,356 -6,22 -27,49 -49,65 -33,26 -45,29 -107,29 -83,0 -116,-17 -285,-150 -97,-76 -140,-105 -154,-105 -4,0 -15,15 -26,33 -18,28 -20,50 -20,200 0,181 -4,198 -57,233 -14,9 -53,23 -85,30 -90,21 -99,14 -233,-181 -23,-33 -44,-67 -48,-75 -4,-8 -16,-28 -27,-45 -25,-39 -140,-270 -140,-283 0,-15 -25,-32 -36,-24 -6,4 -14,52 -17,107 -27,440 -28,445 -99,511 -59,56 -157,92 -181,67 z"
       id="path1671" />
    <path
       d="m 1442,2041 c -34,-5 -73,-12 -85,-18 -121,-53 -195,-110 -227,-174 -14,-25 -20,-58 -20,-99 0,-54 -3,-64 -27,-84 -26,-23 -27,-25 -14,-67 22,-72 44,-109 86,-146 64,-55 130,-78 335,-118 287,-56 331,-110 145,-178 -109,-40 -306,-98 -413,-121 -69,-15 -76,-15 -103,1 -51,30 -36,54 51,81 41,13 91,30 110,37 19,8 53,17 75,20 33,6 37,8 21,17 -19,11 -29,10 -156,-20 -141,-33 -175,-43 -184,-53 -6,-5 -17,-9 -26,-9 -9,0 -29,-13 -45,-30 -26,-27 -27,-31 -15,-62 19,-47 76,-115 121,-144 91,-57 174,-76 354,-81 379,-11 565,78 625,300 17,62 9,125 -25,191 -34,67 -72,105 -149,146 -95,51 -203,82 -351,101 -77,9 -190,32 -217,44 -28,11 -21,38 20,76 87,82 157,118 312,160 91,25 350,33 357,12 3,-7 13,-13 24,-13 40,0 14,58 -54,121 -27,25 -85,57 -169,92 -44,19 -260,30 -356,18 z"
       id="path1673" />
    <path
       d="m 3743,2022 c -49,-20 -113,-78 -113,-103 0,-9 -8,-34 -17,-55 -16,-35 -18,-79 -17,-454 0,-531 12,-619 86,-628 21,-3 39,12 98,77 40,44 98,113 128,153 l 55,73 -29,5 c -18,3 -33,15 -41,31 -9,18 -14,153 -19,464 -5,302 -10,442 -18,447 -18,13 -69,8 -113,-10 z"
       id="path1675" />
    <path
       d="m 5753,2022 c -63,-26 -98,-65 -124,-140 -24,-66 -24,-71 -23,-477 0,-526 13,-614 86,-623 20,-2 39,12 93,70 38,40 95,109 128,153 l 59,80 -28,5 c -18,3 -33,15 -41,31 -9,18 -14,153 -19,464 -5,302 -10,442 -18,447 -18,13 -69,8 -113,-10 z"
       id="path1677" />
    <path
       d="m 10517,2021 c -60,-28 -93,-67 -118,-139 -24,-66 -24,-71 -23,-477 0,-526 13,-614 86,-623 21,-3 39,12 98,77 40,44 98,113 128,153 l 55,73 -29,5 c -18,3 -33,15 -41,31 -9,18 -14,153 -19,464 -5,302 -10,442 -18,447 -19,13 -79,7 -119,-11 z"
       id="path1679" />
    <path
       d="m 8517,2015 c -340,-68 -588,-447 -513,-785 20,-89 38,-136 82,-209 34,-57 126,-151 148,-151 5,0 17,-6 25,-13 25,-21 110,-44 214,-58 115,-15 174,-5 282,48 102,50 109,55 167,108 146,134 213,269 238,481 14,116 10,134 -36,188 -19,22 -34,48 -34,59 0,10 -7,50 -17,88 -13,55 -23,74 -47,92 -54,41 -111,57 -199,57 -180,0 -342,-92 -375,-214 -25,-95 -8,-130 50,-104 67,30 205,63 312,75 43,5 51,3 67,-18 22,-29 24,-71 5,-164 -34,-167 -126,-315 -256,-410 -51,-37 -148,-63 -195,-51 -35,9 -113,87 -136,137 -54,113 -54,115 -54,304 v 180 l 30,54 c 57,104 135,168 308,255 53,27 97,53 97,57 0,13 -84,9 -163,-6 z"
       id="path1681" />
    <path
       d="m 10027,1527 c -3,-8 -2,-19 3,-26 5,-10 9,-8 14,4 3,9 6,21 6,26 0,14 -17,11 -23,-4 z"
       id="path1683" />
    <path
       d="m 10002,1430 c 0,-14 2,-19 5,-12 2,6 2,18 0,25 -3,6 -5,1 -5,-13 z"
       id="path1685" />
  </g>
</svg>
