<?xml version="1.0" encoding="UTF-8" standalone="no"?>
<svg
   xmlns:dc="http://purl.org/dc/elements/1.1/"
   xmlns:cc="http://creativecommons.org/ns#"
   xmlns:rdf="http://www.w3.org/1999/02/22-rdf-syntax-ns#"
   xmlns:svg="http://www.w3.org/2000/svg"
   xmlns="http://www.w3.org/2000/svg"
   xmlns:sodipodi="http://sodipodi.sourceforge.net/DTD/sodipodi-0.dtd"
   xmlns:inkscape="http://www.inkscape.org/namespaces/inkscape"
   width="75.87561mm"
   height="81.182724mm"
   viewBox="0 0 75.87561 81.182724"
   version="1.1"
   id="svg8"
   sodipodi:docname="sort_by_score_desc.svg"
   inkscape:version="1.0.2-2 (e86c870879, 2021-01-15)">
  <defs
     id="defs2" />
  <sodipodi:namedview
     id="base"
     pagecolor="#ffffff"
     bordercolor="#666666"
     borderopacity="1.0"
     inkscape:pageopacity="0.0"
     inkscape:pageshadow="2"
     inkscape:zoom="1.4"
     inkscape:cx="215.26133"
     inkscape:cy="156.22516"
     inkscape:document-units="mm"
     inkscape:current-layer="layer1"
     inkscape:document-rotation="0"
     showgrid="false"
     inkscape:window-width="1920"
     inkscape:window-height="1027"
     inkscape:window-x="-8"
     inkscape:window-y="-8"
     inkscape:window-maximized="1" />
  <metadata
     id="metadata5">
    <rdf:RDF>
      <cc:Work
         rdf:about="">
        <dc:format>image/svg+xml</dc:format>
        <dc:type
           rdf:resource="http://purl.org/dc/dcmitype/StillImage" />
        <dc:title></dc:title>
      </cc:Work>
    </rdf:RDF>
  </metadata>
  <g
     inkscape:label="Layer 1"
     inkscape:groupmode="layer"
     id="layer1"
     style="display:inline"
     transform="translate(-31.722408,-74.867709)">
    <path
       style="fill:#000000;stroke:#000000;stroke-width:0.264583px;stroke-linecap:butt;stroke-linejoin:miter;stroke-opacity:1"
       d="m 44,155.42596 v -60 H 32 L 48.5,75.07775 65,95.42596 H 53 v 60 z"
       id="path10"
       sodipodi:nodetypes="cccccccc" />
    <g
       aria-label="1"
       id="text837"
       style="font-style:normal;font-weight:normal;font-size:10.5833px;line-height:1.25;font-family:sans-serif;fill:#000000;fill-opacity:1;stroke:none;stroke-width:0.264583">
      <path
         d="M 100.04559,112.6369 H 75.389726 v -6.44922 h 7.788672 V 86.666394 h -7.788672 v -6.027539 q 1.785938,0 3.423047,-0.198437 1.637109,-0.223242 2.728516,-0.744141 1.289843,-0.620117 1.934765,-1.612304 0.644922,-0.992188 0.744141,-2.480469 h 8.210351 v 30.584176 h 7.615044 z"
         style="font-style:normal;font-variant:normal;font-weight:bold;font-stretch:normal;font-size:50.8px;font-family:sans-serif;-inkscape-font-specification:'sans-serif Bold';stroke-width:0.264583"
         id="path879" />
    </g>
    <g
       aria-label="9"
       id="text837-4"
       style="font-style:normal;font-weight:normal;font-size:10.5833px;line-height:1.25;font-family:sans-serif;display:inline;fill:#000000;fill-opacity:1;stroke:none;stroke-width:0.264583">
      <path
         d="m 102.17404,134.37821 q 0,4.63847 -1.19062,8.63203 -1.190626,3.99355 -3.621485,6.72207 -2.629297,2.95176 -6.523633,4.44004 -3.894336,1.46347 -9.078515,1.46347 -1.835547,0 -3.96875,-0.22324 -2.133203,-0.22324 -2.80293,-0.39687 v -7.26778 h 0.992188 q 0.74414,0.34727 2.108398,0.74414 1.389063,0.39688 3.770313,0.39688 1.934765,0 3.795117,-0.47129 1.860351,-0.49609 3.199804,-1.53789 1.463477,-1.11621 2.406055,-2.77812 0.942578,-1.68672 1.265039,-4.04317 -2.158008,1.24024 -4.018359,1.90996 -1.835547,0.64492 -4.588867,0.64492 -2.083594,0 -3.993555,-0.49609 -1.885156,-0.5209 -3.447852,-1.5875 -2.058789,-1.46348 -3.299023,-3.84473 -1.21543,-2.40605 -1.21543,-6.05234 0,-5.92832 4.117578,-9.64902 4.142383,-3.74551 10.839649,-3.74551 3.447851,0 6.101953,0.91777 2.678906,0.89297 4.613672,2.75332 2.257226,2.13321 3.398243,5.43223 1.14101,3.29902 1.14101,8.03672 z m -9.500191,-1.38906 q 0,-3.02618 -0.595312,-4.96094 -0.570508,-1.95957 -1.5875,-3.02617 -0.719336,-0.79375 -1.661914,-1.14102 -0.942578,-0.34727 -1.984375,-0.34727 -0.967383,0 -1.860352,0.34727 -0.868164,0.32246 -1.686719,1.14102 -0.768945,0.79375 -1.265039,2.08359 -0.471289,1.28984 -0.471289,3.07578 0,1.73633 0.520899,2.92695 0.520898,1.16582 1.438672,1.86036 0.868164,0.66972 2.033984,0.94257 1.190625,0.27286 2.579687,0.27286 1.116211,0 2.43086,-0.27286 1.314648,-0.29765 2.033984,-0.59531 0,-0.27285 0.02481,-0.76894 0.04961,-0.5209 0.04961,-1.53789 z"
         style="font-style:normal;font-variant:normal;font-weight:bold;font-stretch:normal;font-size:50.8px;font-family:sans-serif;-inkscape-font-specification:'sans-serif Bold';stroke-width:0.264583"
         id="path882" />
    </g>
  </g>
</svg>
